<svg xmlns="http://www.w3.org/2000/svg" viewBox="0 0 1600 1000" preserveAspectRatio="xMidYMid slice" role="img"><defs>
<linearGradient id="bg" x1="0" y1="0" x2="0" y2="1">
  <stop offset="0%" stop-color="#070b18"/><stop offset="100%" stop-color="#04060d"/>
</linearGradient>
<linearGradient id="grad" x1="0" y1="0" x2="1" y2="1">
  <stop offset="0%" stop-color="#6366f1"/><stop offset="100%" stop-color="#22d3ee"/>
</linearGradient>
<radialGradient id="glow" cx="50%" cy="0%" r="90%">
  <stop offset="0%" stop-color="rgba(99,102,241,0.20)"/>
  <stop offset="55%" stop-color="rgba(34,211,238,0.05)"/>
  <stop offset="100%" stop-color="rgba(0,0,0,0)"/>
</radialGradient>
<filter id="soft"><feGaussianBlur stdDeviation="9"/></filter>
<marker id="arw" markerWidth="9" markerHeight="9" refX="6" refY="3" orient="auto">
  <path d="M0 0 L6 3 L0 6 Z" fill="#22d3ee"/>
</marker>
</defs><rect width="1600" height="1000" fill="url(#bg)"/><rect width="1600" height="1000" fill="url(#glow)"/><rect x="70.0" y="90.0" width="1460.0" height="820.0" rx="22.0" fill="#0b1224" stroke="rgba(255,255,255,0.10)" stroke-width="1.20"/>
<rect x="70.0" y="90.0" width="1460.0" height="64.0" rx="22.0" fill="rgba(255,255,255,0.03)"/>
<circle cx="118.0" cy="122.0" r="8.0" fill="rgba(255,255,255,0.18)" opacity="1.000"/>
<circle cx="152.0" cy="122.0" r="8.0" fill="rgba(255,255,255,0.18)" opacity="1.000"/>
<circle cx="186.0" cy="122.0" r="8.0" fill="rgba(255,255,255,0.18)" opacity="1.000"/>
<rect x="520.0" y="104.0" width="560.0" height="36.0" rx="18.0" fill="rgba(255,255,255,0.05)" stroke="rgba(255,255,255,0.055)" stroke-width="1.20"/>
<circle cx="552" cy="122" r="7" fill="none" stroke="#22d3ee" stroke-width="1.6"/>
<text x="800.0" y="130.0" font-family="'JetBrains Mono',ui-monospace,monospace" font-size="17" font-weight="500" fill="#9aa6c2" text-anchor="middle">chaosvision.ai</text>
<circle cx="128.0" cy="210.0" r="13.0" fill="url(#grad)" opacity="1.000"/>
<text x="154.0" y="217.0" font-family="'Space Grotesk','Inter',system-ui,sans-serif" font-size="21" font-weight="600" fill="#e9eefb">Chaos Vision</text>
<text x="870.0" y="217.0" font-family="'JetBrains Mono',ui-monospace,monospace" font-size="16" font-weight="500" fill="#9aa6c2">Услуги</text>
<text x="990.0" y="217.0" font-family="'JetBrains Mono',ui-monospace,monospace" font-size="16" font-weight="500" fill="#9aa6c2">Кейсы</text>
<text x="1100.0" y="217.0" font-family="'JetBrains Mono',ui-monospace,monospace" font-size="16" font-weight="500" fill="#9aa6c2">О студии</text>
<text x="1250.0" y="217.0" font-family="'JetBrains Mono',ui-monospace,monospace" font-size="16" font-weight="500" fill="#9aa6c2">Контакты</text>
<rect x="1290.0" y="192.0" width="150.0" height="40.0" rx="20.0" fill="url(#grad)"/>
<text x="1365.0" y="218.0" font-family="'JetBrains Mono',ui-monospace,monospace" font-size="15" font-weight="600" fill="#04060d" text-anchor="middle">Telegram</text>
<text x="110.0" y="348.0" font-family="'Space Grotesk','Inter',system-ui,sans-serif" font-size="46" font-weight="600" fill="#e9eefb">Внедряем ИИ,</text>
<text x="110.0" y="400.0" font-family="'Space Grotesk','Inter',system-ui,sans-serif" font-size="46" font-weight="600" fill="#e9eefb">который окупается</text>
<text x="110.0" y="452.0" font-family="'Space Grotesk','Inter',system-ui,sans-serif" font-size="18" font-weight="500" fill="#9aa6c2">Студия полного цикла: считаем экономику</text>
<text x="110.0" y="480.0" font-family="'Space Grotesk','Inter',system-ui,sans-serif" font-size="18" font-weight="500" fill="#9aa6c2">и собираем решения, что работают в проде.</text>
<rect x="110.0" y="520.0" width="210.0" height="58.0" rx="14.0" fill="url(#grad)"/>
<text x="215.0" y="558.0" font-family="'JetBrains Mono',ui-monospace,monospace" font-size="17" font-weight="600" fill="#04060d" text-anchor="middle">ОБСУДИТЬ</text>
<rect x="340.0" y="520.0" width="190.0" height="58.0" rx="14.0" fill="none" stroke="rgba(255,255,255,0.10)" stroke-width="1.20"/>
<rect x="870.0" y="310.0" width="560.0" height="290.0" rx="18.0" fill="rgba(99,102,241,0.12)" stroke="rgba(255,255,255,0.055)" stroke-width="1.20"/>
<circle cx="1150.0" cy="455.0" r="70.0" fill="url(#grad)" opacity="0.550"/>
<circle cx="1150.0" cy="455.0" r="70.0" fill="none" opacity="1.000"/>
<rect x="110.0" y="660.0" width="420.0" height="150.0" rx="16.0" fill="rgba(255,255,255,0.03)" stroke="rgba(255,255,255,0.055)" stroke-width="1.20"/>
<rect x="138.0" y="690.0" width="40.0" height="40.0" rx="10.0" fill="none" stroke="#22d3ee" stroke-width="1.80"/>
<text x="138.0" y="760.0" font-family="'Space Grotesk','Inter',system-ui,sans-serif" font-size="21" font-weight="600" fill="#e9eefb">Быстро</text>
<rect x="138.0" y="780.0" width="180.0" height="10.0" rx="5.0" fill="#9aa6c2" opacity="0.500"/>
<rect x="570.0" y="660.0" width="420.0" height="150.0" rx="16.0" fill="rgba(255,255,255,0.03)" stroke="rgba(255,255,255,0.055)" stroke-width="1.20"/>
<rect x="598.0" y="690.0" width="40.0" height="40.0" rx="10.0" fill="none" stroke="#22d3ee" stroke-width="1.80"/>
<text x="598.0" y="760.0" font-family="'Space Grotesk','Inter',system-ui,sans-serif" font-size="21" font-weight="600" fill="#e9eefb">Под контролем</text>
<rect x="598.0" y="780.0" width="180.0" height="10.0" rx="5.0" fill="#9aa6c2" opacity="0.500"/>
<rect x="1030.0" y="660.0" width="420.0" height="150.0" rx="16.0" fill="rgba(255,255,255,0.03)" stroke="rgba(255,255,255,0.055)" stroke-width="1.20"/>
<rect x="1058.0" y="690.0" width="40.0" height="40.0" rx="10.0" fill="none" stroke="#22d3ee" stroke-width="1.80"/>
<text x="1058.0" y="760.0" font-family="'Space Grotesk','Inter',system-ui,sans-serif" font-size="21" font-weight="600" fill="#e9eefb">Приватно</text>
<rect x="1058.0" y="780.0" width="180.0" height="10.0" rx="5.0" fill="#9aa6c2" opacity="0.500"/></svg>