<svg xmlns="http://www.w3.org/2000/svg" viewBox="0 0 1600 1000" preserveAspectRatio="xMidYMid slice" role="img"><defs>
<linearGradient id="bg" x1="0" y1="0" x2="0" y2="1">
  <stop offset="0%" stop-color="#070b18"/><stop offset="100%" stop-color="#04060d"/>
</linearGradient>
<linearGradient id="grad" x1="0" y1="0" x2="1" y2="1">
  <stop offset="0%" stop-color="#6366f1"/><stop offset="100%" stop-color="#22d3ee"/>
</linearGradient>
<radialGradient id="glow" cx="50%" cy="0%" r="90%">
  <stop offset="0%" stop-color="rgba(99,102,241,0.20)"/>
  <stop offset="55%" stop-color="rgba(34,211,238,0.05)"/>
  <stop offset="100%" stop-color="rgba(0,0,0,0)"/>
</radialGradient>
<filter id="soft"><feGaussianBlur stdDeviation="9"/></filter>
<marker id="arw" markerWidth="9" markerHeight="9" refX="6" refY="3" orient="auto">
  <path d="M0 0 L6 3 L0 6 Z" fill="#22d3ee"/>
</marker>
</defs><rect width="1600" height="1000" fill="url(#bg)"/><rect width="1600" height="1000" fill="url(#glow)"/><text x="70.0" y="78.0" font-family="'JetBrains Mono',ui-monospace,monospace" font-size="20" font-weight="500" fill="#9aa6c2" letter-spacing="3">CONTENT STUDIO</text>
<rect x="1170.0" y="52.0" width="164.0" height="34.0" rx="17.0" fill="rgba(34,211,238,0.1)" stroke="#22d3ee" stroke-width="1.20" opacity="0.900"/><text x="1252.0" y="75.0" font-family="'JetBrains Mono',ui-monospace,monospace" font-size="15" font-weight="500" fill="#22d3ee" text-anchor="middle" letter-spacing="1.5">23 PUBLISHED</text>
<rect x="1330.0" y="50.0" width="200.0" height="40.0" rx="12.0" fill="url(#grad)"/>
<text x="1430.0" y="76.0" font-family="'JetBrains Mono',ui-monospace,monospace" font-size="16" font-weight="600" fill="#04060d" text-anchor="middle">+ GENERATE</text>
<rect x="70.0" y="130.0" width="464.0" height="383.0" rx="18.0" fill="#0d1428" stroke="rgba(255,255,255,0.10)" stroke-width="1.20"/>
<rect x="92.0" y="152.0" width="420.0" height="191.5" rx="12.0" fill="rgba(99,102,241,0.16)" stroke="rgba(255,255,255,0.055)" stroke-width="1.20"/>
<circle cx="302.0" cy="247.8" r="22.0" fill="url(#grad)" opacity="0.500"/>
<rect x="92.0" y="361.5" width="384.0" height="13.0" rx="6.5" fill="#e9eefb" opacity="0.850"/>
<rect x="92.0" y="387.5" width="314.0" height="11.0" rx="5.5" fill="#9aa6c2" opacity="0.600"/>
<rect x="92.0" y="455.0" width="60.5" height="34.0" rx="17.0" fill="rgba(34,211,238,0.12)" stroke="#22d3ee" stroke-width="1.20" opacity="0.900"/><text x="122.2" y="478.0" font-family="'JetBrains Mono',ui-monospace,monospace" font-size="15" font-weight="500" fill="#22d3ee" text-anchor="middle" letter-spacing="1.5">SEO</text>
<rect x="414.0" y="467.0" width="90.0" height="10.0" rx="5.0" fill="#586280" opacity="0.700"/>
<rect x="568.0" y="130.0" width="464.0" height="383.0" rx="18.0" fill="#0d1428" stroke="#22d3ee" stroke-width="1.60"/>
<rect x="590.0" y="152.0" width="420.0" height="191.5" rx="12.0" fill="rgba(99,102,241,0.16)" stroke="rgba(255,255,255,0.055)" stroke-width="1.20"/>
<circle cx="800.0" cy="247.8" r="22.0" fill="url(#grad)" opacity="0.500"/>
<rect x="590.0" y="361.5" width="384.0" height="13.0" rx="6.5" fill="#e9eefb" opacity="0.850"/>
<rect x="590.0" y="387.5" width="314.0" height="11.0" rx="5.5" fill="#9aa6c2" opacity="0.600"/>
<rect x="590.0" y="455.0" width="60.5" height="34.0" rx="17.0" fill="rgba(34,211,238,0.12)" stroke="#22d3ee" stroke-width="1.20" opacity="0.900"/><text x="620.2" y="478.0" font-family="'JetBrains Mono',ui-monospace,monospace" font-size="15" font-weight="500" fill="#22d3ee" text-anchor="middle" letter-spacing="1.5">SEO</text>
<rect x="912.0" y="467.0" width="90.0" height="10.0" rx="5.0" fill="#586280" opacity="0.700"/>
<rect x="590.0" y="421.0" width="420.0" height="6.0" rx="3.0" fill="rgba(255,255,255,0.06)"/>
<rect x="590.0" y="421.0" width="260.4" height="6.0" rx="3.0" fill="url(#grad)"/>
<rect x="1066.0" y="130.0" width="464.0" height="383.0" rx="18.0" fill="#0d1428" stroke="rgba(255,255,255,0.10)" stroke-width="1.20"/>
<rect x="1088.0" y="152.0" width="420.0" height="191.5" rx="12.0" fill="rgba(99,102,241,0.16)" stroke="rgba(255,255,255,0.055)" stroke-width="1.20"/>
<circle cx="1298.0" cy="247.8" r="22.0" fill="url(#grad)" opacity="0.500"/>
<rect x="1088.0" y="361.5" width="384.0" height="13.0" rx="6.5" fill="#e9eefb" opacity="0.850"/>
<rect x="1088.0" y="387.5" width="314.0" height="11.0" rx="5.5" fill="#9aa6c2" opacity="0.600"/>
<rect x="1088.0" y="455.0" width="60.5" height="34.0" rx="17.0" fill="rgba(34,211,238,0.12)" stroke="#22d3ee" stroke-width="1.20" opacity="0.900"/><text x="1118.2" y="478.0" font-family="'JetBrains Mono',ui-monospace,monospace" font-size="15" font-weight="500" fill="#22d3ee" text-anchor="middle" letter-spacing="1.5">SEO</text>
<rect x="1410.0" y="467.0" width="90.0" height="10.0" rx="5.0" fill="#586280" opacity="0.700"/>
<rect x="70.0" y="547.0" width="464.0" height="383.0" rx="18.0" fill="#0d1428" stroke="rgba(255,255,255,0.10)" stroke-width="1.20"/>
<rect x="92.0" y="569.0" width="420.0" height="191.5" rx="12.0" fill="rgba(99,102,241,0.16)" stroke="rgba(255,255,255,0.055)" stroke-width="1.20"/>
<circle cx="302.0" cy="664.8" r="22.0" fill="url(#grad)" opacity="0.500"/>
<rect x="92.0" y="778.5" width="384.0" height="13.0" rx="6.5" fill="#e9eefb" opacity="0.850"/>
<rect x="92.0" y="804.5" width="314.0" height="11.0" rx="5.5" fill="#9aa6c2" opacity="0.600"/>
<rect x="92.0" y="872.0" width="60.5" height="34.0" rx="17.0" fill="rgba(34,211,238,0.12)" stroke="#22d3ee" stroke-width="1.20" opacity="0.900"/><text x="122.2" y="895.0" font-family="'JetBrains Mono',ui-monospace,monospace" font-size="15" font-weight="500" fill="#22d3ee" text-anchor="middle" letter-spacing="1.5">SEO</text>
<rect x="414.0" y="884.0" width="90.0" height="10.0" rx="5.0" fill="#586280" opacity="0.700"/>
<rect x="568.0" y="547.0" width="464.0" height="383.0" rx="18.0" fill="#0d1428" stroke="rgba(255,255,255,0.10)" stroke-width="1.20"/>
<rect x="590.0" y="569.0" width="420.0" height="191.5" rx="12.0" fill="rgba(99,102,241,0.16)" stroke="rgba(255,255,255,0.055)" stroke-width="1.20"/>
<circle cx="800.0" cy="664.8" r="22.0" fill="url(#grad)" opacity="0.500"/>
<rect x="590.0" y="778.5" width="384.0" height="13.0" rx="6.5" fill="#e9eefb" opacity="0.850"/>
<rect x="590.0" y="804.5" width="314.0" height="11.0" rx="5.5" fill="#9aa6c2" opacity="0.600"/>
<rect x="590.0" y="872.0" width="60.5" height="34.0" rx="17.0" fill="rgba(34,211,238,0.12)" stroke="#22d3ee" stroke-width="1.20" opacity="0.900"/><text x="620.2" y="895.0" font-family="'JetBrains Mono',ui-monospace,monospace" font-size="15" font-weight="500" fill="#22d3ee" text-anchor="middle" letter-spacing="1.5">SEO</text>
<rect x="912.0" y="884.0" width="90.0" height="10.0" rx="5.0" fill="#586280" opacity="0.700"/>
<rect x="1066.0" y="547.0" width="464.0" height="383.0" rx="18.0" fill="#0d1428" stroke="rgba(255,255,255,0.10)" stroke-width="1.20"/>
<rect x="1088.0" y="569.0" width="420.0" height="191.5" rx="12.0" fill="rgba(99,102,241,0.16)" stroke="rgba(255,255,255,0.055)" stroke-width="1.20"/>
<circle cx="1298.0" cy="664.8" r="22.0" fill="url(#grad)" opacity="0.500"/>
<rect x="1088.0" y="778.5" width="384.0" height="13.0" rx="6.5" fill="#e9eefb" opacity="0.850"/>
<rect x="1088.0" y="804.5" width="314.0" height="11.0" rx="5.5" fill="#9aa6c2" opacity="0.600"/>
<rect x="1088.0" y="872.0" width="60.5" height="34.0" rx="17.0" fill="rgba(34,211,238,0.12)" stroke="#22d3ee" stroke-width="1.20" opacity="0.900"/><text x="1118.2" y="895.0" font-family="'JetBrains Mono',ui-monospace,monospace" font-size="15" font-weight="500" fill="#22d3ee" text-anchor="middle" letter-spacing="1.5">SEO</text>
<rect x="1410.0" y="884.0" width="90.0" height="10.0" rx="5.0" fill="#586280" opacity="0.700"/></svg>